# xmcd
#
# Track frame offsets: 
#        150
#        14105
#        31306
#        46876
#        63029
#        74172
#        88542
#        102207
#        115745
#        132595
#        145918
#        162564
#        178974
#        190088
#        214730
#
# Disc length: 3037 seconds
#
# Revision: 2
# Processed by: cddbd v1.5.2PL0 Copyright (c) Steve Scherf et al.
# Submitted via: ExactAudioCopy v0.95a4
#
DISCID=e00bdb0f
DTITLE=John Anderson - Anthology [CD1]
DYEAR=2002
DGENRE=Country
TTITLE0=Your Lyin' Blue Eyes
TTITLE1=I'm Just An Old Chunk Of Coal (But I'm Going To Be A Diamond S
TTITLE1=omeday)
TTITLE2=I Love You A Thousand Ways
TTITLE3=Long Black Veil
TTITLE4=She Just Started Liking Cheatin' Songs
TTITLE5=1959
TTITLE6=Would You Catch A Fallen Star
TTITLE7=Wild And Blue
TTITLE8=I Just Came Home To Count The Memories
TTITLE9=Chicken Truck
TTITLE10=Honky Tonk Crowd
TTITLE11=Down In Tennessee
TTITLE12=Let Somebody Else Drive
TTITLE13=Occasional Eagle
TTITLE14=Swingin'
EXTD=YEAR: 2002
EXTT0=
EXTT1=
EXTT2=
EXTT3=
EXTT4=
EXTT5=
EXTT6=
EXTT7=
EXTT8=
EXTT9=
EXTT10=
EXTT11=
EXTT12=
EXTT13=
EXTT14=
PLAYORDER=
